<svg width="502" height="497" viewBox="0 0 502 497" fill="none" xmlns="http://www.w3.org/2000/svg">
<path d="M148.318 0C66.5433 0 0 65.8806 0 146.841V350.159C0 431.119 66.5433 497 148.318 497H353.682C435.457 497 502 431.119 502 350.159V146.841C502 65.8806 435.457 0 353.682 0H148.318ZM148.318 22.5909H353.682C423.123 22.5909 479.182 78.0913 479.182 146.841V350.159C479.182 418.909 423.123 474.409 353.682 474.409H148.318C78.8769 474.409 22.8182 418.909 22.8182 350.159V146.841C22.8182 78.0913 78.8769 22.5909 148.318 22.5909ZM387.909 90.3636C381.857 90.3636 376.053 92.7438 371.774 96.9804C367.495 101.217 365.091 106.963 365.091 112.955C365.091 118.946 367.495 124.692 371.774 128.929C376.053 133.165 381.857 135.545 387.909 135.545C393.961 135.545 399.765 133.165 404.044 128.929C408.323 124.692 410.727 118.946 410.727 112.955C410.727 106.963 408.323 101.217 404.044 96.9804C399.765 92.7438 393.961 90.3636 387.909 90.3636ZM251 124.25C181.823 124.25 125.5 180.012 125.5 248.5C125.5 316.988 181.823 372.75 251 372.75C320.177 372.75 376.5 316.988 376.5 248.5C376.5 180.012 320.177 124.25 251 124.25ZM251 146.841C307.845 146.841 353.682 192.221 353.682 248.5C353.682 304.779 307.845 350.159 251 350.159C194.155 350.159 148.318 304.779 148.318 248.5C148.318 192.221 194.155 146.841 251 146.841Z" fill="#38BDF8"/>
</svg>
