<svg width="354" height="354" viewBox="0 0 354 354" fill="none" xmlns="http://www.w3.org/2000/svg">
<circle cx="177" cy="177" r="164.5" stroke="#334155" stroke-width="25"/>
<path d="M107.144 170.79L233 85.2622" stroke="#38BDF8" stroke-width="7"/>
<path d="M140 242.262C135.319 223.808 134.052 213.15 140 192.262" stroke="#38BDF8" stroke-width="7"/>
<path d="M142.188 195.256C122.33 191.714 113.865 186.842 104.188 172.256" stroke="#38BDF8" stroke-width="7"/>
<line x1="108.039" y1="169.999" x2="64.0388" y2="246.999" stroke="#38BDF8" stroke-width="7"/>
<line x1="64.823" y1="243.767" x2="143.823" y2="239.767" stroke="#38BDF8" stroke-width="7"/>
<path d="M92.8694 244.827C96.6921 228.856 95.7259 221.934 79.8694 218.827" stroke="#38BDF8" stroke-width="7"/>
<line x1="142.094" y1="240.327" x2="276.094" y2="153.327" stroke="#38BDF8" stroke-width="7"/>
<line x1="140.154" y1="194.288" x2="227.154" y2="140.288" stroke="#38BDF8" stroke-width="7"/>
<path d="M230.165 85.5235C267 88.7622 282.5 115.762 275 156.262" stroke="#38BDF8" stroke-width="7"/>
<path d="M191.233 113.379C229.525 123.011 236.174 142.464 237 177.262" stroke="#38BDF8" stroke-width="7"/>
<path d="M211 98.1637C245.987 106.314 257.105 123.534 260.864 160.258" stroke="#38BDF8" stroke-width="7"/>
</svg>
