<svg width="2210" height="1241" viewBox="0 0 2210 1241" fill="none" xmlns="http://www.w3.org/2000/svg">
<path d="M134.15 418.119L240.929 345.555" stroke="white" stroke-width="7"/>
<path d="M162.026 478.758C158.054 463.101 156.979 454.059 162.026 436.337" stroke="white" stroke-width="7"/>
<path d="M163.882 438.877C147.034 435.871 139.852 431.738 131.641 419.363" stroke="white" stroke-width="7"/>
<line x1="135.37" y1="417.711" x2="98.039" y2="483.04" stroke="white" stroke-width="7"/>
<line x1="98.2168" y1="479.504" x2="165.242" y2="476.111" stroke="white" stroke-width="7"/>
<path d="M122.039 480.934C125.282 467.384 124.462 461.511 111.009 458.875" stroke="white" stroke-width="7"/>
<line x1="163.513" y1="476.671" x2="277.202" y2="402.858" stroke="white" stroke-width="7"/>
<line x1="161.877" y1="437.605" x2="235.69" y2="391.79" stroke="white" stroke-width="7"/>
<path d="M238.524 345.777C269.775 348.525 282.926 371.432 276.563 405.793" stroke="white" stroke-width="7"/>
<path d="M205.493 369.41C237.981 377.582 243.622 394.086 244.323 423.61" stroke="white" stroke-width="7"/>
<path d="M222.264 356.501C251.948 363.416 261.38 378.025 264.569 409.183" stroke="white" stroke-width="7"/>
<path d="M189 581.7C165.3 581.7 143.25 577.8 122.85 570C102.75 561.9 85.2 550.65 70.2 536.25C55.5 521.55 43.95 504.6 35.55 485.4C27.45 465.9 23.4 444.6 23.4 421.5C23.4 398.4 27.45 377.25 35.55 358.05C43.95 338.55 55.5 321.6 70.2 307.2C85.2 292.5 102.75 281.25 122.85 273.45C142.95 265.35 165 261.3 189 261.3C212.7 261.3 234.6 265.35 254.7 273.45C274.8 281.25 292.2 292.35 306.9 306.75C321.9 321.15 333.45 338.1 341.55 357.6C349.95 377.1 354.15 398.4 354.15 421.5C354.15 444.6 349.95 465.9 341.55 485.4C333.45 504.9 321.9 521.85 306.9 536.25C292.2 550.65 274.8 561.9 254.7 570C234.6 577.8 212.7 581.7 189 581.7ZM189 552C207.9 552 225.3 548.85 241.2 542.55C257.4 535.95 271.35 526.8 283.05 515.1C295.05 503.1 304.35 489.3 310.95 473.7C317.55 457.8 320.85 440.4 320.85 421.5C320.85 402.6 317.55 385.35 310.95 369.75C304.35 353.85 295.05 340.05 283.05 328.35C271.35 316.35 257.4 307.2 241.2 300.9C225.3 294.3 207.9 291 189 291C170.1 291 152.55 294.3 136.35 300.9C120.15 307.2 106.05 316.35 94.05 328.35C82.35 340.05 73.05 353.85 66.15 369.75C59.55 385.35 56.25 402.6 56.25 421.5C56.25 440.1 59.55 457.35 66.15 473.25C73.05 489.15 82.35 503.1 94.05 515.1C106.05 526.8 120.15 535.95 136.35 542.55C152.55 548.85 170.1 552 189 552ZM542.64 340.5C561.84 340.5 578.64 344.25 593.04 351.75C607.74 358.95 619.14 370.05 627.24 385.05C635.64 400.05 639.84 418.95 639.84 441.75V579H607.89V444.9C607.89 420 601.59 401.25 588.99 388.65C576.69 375.75 559.29 369.3 536.79 369.3C519.99 369.3 505.29 372.75 492.69 379.65C480.39 386.25 470.79 396 463.89 408.9C457.29 421.5 453.99 436.8 453.99 454.8V579H422.04V342.75H452.64V407.55L447.69 395.4C455.19 378.3 467.19 364.95 483.69 355.35C500.19 345.45 519.84 340.5 542.64 340.5ZM726.142 579V245.1H758.092V579H726.142ZM848.791 668.55C837.691 668.55 827.041 666.75 816.841 663.15C806.941 659.55 798.391 654.15 791.191 646.95L806.041 623.1C812.041 628.8 818.491 633.15 825.391 636.15C832.591 639.45 840.541 641.1 849.241 641.1C859.741 641.1 868.741 638.1 876.241 632.1C884.041 626.4 891.391 616.2 898.291 601.5L913.591 566.85L917.191 561.9L1014.39 342.75H1045.89L927.541 607.35C920.941 622.65 913.591 634.8 905.491 643.8C897.691 652.8 889.141 659.1 879.841 662.7C870.541 666.6 860.191 668.55 848.791 668.55ZM911.791 585.75L802.891 342.75H836.191L932.491 559.65L911.791 585.75Z" fill="#334155"/>
<path d="M1076.67 449.746C1071.2 449.746 1068.47 446.328 1068.47 439.492C1068.47 434.414 1070.71 428.848 1075.21 422.793C1079.89 416.738 1082.73 412.734 1083.7 410.781C1084.68 408.828 1087.22 405.801 1091.32 401.699C1095.62 397.598 1099.33 395.156 1102.45 394.375C1105.77 393.594 1112.41 392.715 1122.38 391.738C1152.84 388.809 1186.05 387.148 1221.98 386.758C1261.05 327.578 1292.88 283.633 1317.49 254.922C1280.97 261.562 1236.14 264.883 1183.02 264.883C1110.95 264.883 1074.91 248.77 1074.91 216.543C1074.91 207.363 1079.5 199.355 1088.68 192.52C1098.06 185.684 1109.78 182.266 1123.84 182.266C1138.1 182.266 1145.23 183.926 1145.23 187.246C1145.23 189.004 1142.98 189.883 1138.49 189.883C1134.19 189.883 1130.09 191.543 1126.18 194.863C1122.47 197.988 1120.62 201.016 1120.62 203.945C1120.62 208.437 1130.19 211.758 1149.33 213.906C1168.47 216.055 1197.96 217.129 1237.8 217.129C1277.84 217.129 1321.2 213.516 1367.88 206.289C1383.31 193.594 1397.77 184.023 1411.24 177.578C1424.91 171.133 1438.78 167.91 1452.84 167.91C1466.91 167.91 1476.09 171.035 1480.38 177.285C1484.68 183.535 1486.83 188.223 1486.83 191.348C1487.02 194.473 1484.78 198.574 1480.09 203.652C1475.4 208.73 1468.86 213.906 1460.46 219.18C1440.73 231.289 1414.86 238.516 1382.82 240.859C1348.64 284.023 1313.39 332.852 1277.06 387.344C1292.1 387.93 1306.16 389.102 1319.25 390.859C1332.34 392.422 1338.88 397.5 1338.88 406.094C1338.88 409.609 1333.31 416.348 1322.18 426.309C1321.01 427.676 1319.54 429.727 1317.79 432.461C1314.66 437.148 1311.54 439.492 1308.41 439.492C1305.48 439.492 1302.06 439.102 1298.16 438.32C1282.92 437.734 1271.5 437.441 1263.88 437.441L1244.84 437.734C1176.09 544.766 1140.54 600.43 1138.2 604.727C1136.05 608.828 1133.61 611.953 1130.87 614.102C1128.33 616.25 1125.11 617.324 1121.2 617.324C1117.3 617.324 1111.83 616.641 1104.8 615.273C1097.77 614.102 1092.49 612.539 1088.98 610.586C1085.46 608.828 1083.7 606.582 1083.7 603.848C1083.7 600.918 1084.58 596.816 1086.34 591.543C1091.03 578.457 1123.84 527.969 1184.78 440.078C1145.13 442.031 1113.68 444.082 1090.44 446.23L1076.67 449.746ZM1448.74 185.195C1445.62 186.172 1441.81 187.734 1437.32 189.883L1448.74 185.195ZM1572.67 170.254C1582.04 170.254 1590.25 173.086 1597.28 178.75C1604.5 184.219 1608.12 192.422 1608.12 203.359C1608.12 214.297 1602.06 231.484 1589.95 254.922C1577.84 278.164 1563.29 301.992 1546.3 326.406C1529.31 350.625 1510.07 376.406 1488.59 403.75C1454.6 447.109 1421.98 486.074 1390.73 520.645C1390.54 522.988 1389.66 527.383 1388.1 533.828C1386.73 540.078 1386.05 546.426 1386.05 552.871C1386.05 559.316 1388.98 565.176 1394.84 570.449C1400.89 575.527 1408.31 578.066 1417.1 578.066C1425.89 578.066 1435.27 574.941 1445.23 568.691C1455.38 562.441 1464.17 555.508 1471.59 547.891C1491.12 527.773 1503.23 517.715 1507.92 517.715C1512.61 517.715 1514.95 524.844 1514.95 539.102V544.961C1514.95 552.578 1513.59 558.145 1510.85 561.66C1494.45 581.777 1475.99 596.816 1455.48 606.777C1434.97 616.543 1415.54 621.426 1397.18 621.426C1378.82 621.426 1364.86 615.859 1355.29 604.727C1345.71 593.398 1340.93 577.969 1340.93 558.438C1340.93 520.352 1351.09 475.625 1371.4 424.258C1391.91 372.695 1414.95 328.848 1440.54 292.715C1498.16 211.074 1542.2 170.254 1572.67 170.254ZM1559.48 218.887C1559.48 215.957 1558.51 214.492 1556.55 214.492C1549.72 214.492 1531.75 234.023 1502.65 273.086C1473.55 312.148 1452.45 343.301 1439.37 366.543C1426.48 389.785 1414.27 418.984 1402.75 454.141C1425.79 426.797 1457.63 384.219 1498.25 326.406C1539.07 268.398 1559.48 232.559 1559.48 218.887ZM1708.02 387.344C1722.86 387.344 1730.29 392.422 1730.29 402.578C1730.29 408.047 1729.02 412.051 1726.48 414.59C1723.94 417.129 1718.47 425.625 1710.07 440.078C1701.87 454.336 1692.69 472.695 1682.53 495.156C1672.57 517.422 1666.12 536.465 1663.2 552.285C1662.61 554.238 1662.32 556.973 1662.32 560.488C1662.32 571.23 1665.25 576.602 1671.11 576.602C1676.96 576.602 1683.9 573.867 1691.91 568.398C1699.91 562.734 1707.04 556.777 1713.29 550.527C1719.54 544.082 1725.6 537.539 1731.46 530.898C1737.51 524.258 1741.12 520.449 1742.3 519.473C1743.47 518.496 1745.23 518.008 1747.57 518.008C1751.28 518.008 1753.53 520.84 1754.31 526.504C1755.09 532.168 1755.48 538.027 1755.48 544.082C1755.48 550.137 1754.89 554.336 1753.72 556.68C1748.06 567.812 1735.56 581.191 1716.22 596.816C1697.08 612.441 1679.6 620.254 1663.78 620.254C1648.16 620.254 1636.63 615.469 1629.21 605.898C1621.79 596.328 1618.08 585.781 1618.08 574.258C1618.08 562.539 1620.03 552.285 1623.94 543.496C1607.73 564.59 1589.07 582.461 1567.98 597.109C1547.08 611.758 1529.99 619.082 1516.71 619.082C1503.43 619.082 1492.59 615.078 1484.19 607.07C1473.45 597.109 1468.08 583.34 1468.08 565.762C1468.08 547.988 1471.98 530.215 1479.8 512.441C1487.8 494.473 1498.25 478.164 1511.14 463.516C1524.04 448.672 1538.2 435.195 1553.62 423.086C1586.05 397.695 1615.93 385 1643.27 385C1653.82 385 1662.41 386.758 1669.05 390.273C1675.7 393.789 1679.89 398.184 1681.65 403.457C1686.34 396.426 1690.25 392.031 1693.37 390.273C1696.69 388.32 1701.57 387.344 1708.02 387.344ZM1669.05 419.863C1635.66 419.863 1601.09 438.418 1565.34 475.527C1552.65 488.809 1540.93 504.727 1530.19 523.281C1519.64 541.836 1514.37 554.531 1514.37 561.367C1514.37 568.203 1516.32 571.621 1520.23 571.621C1525.7 571.621 1540.93 560.879 1565.93 539.395C1590.93 517.715 1607.53 501.797 1615.73 491.641C1624.72 480.312 1642.49 456.387 1669.05 419.863ZM1761.05 551.406L1760.75 556.094C1760.75 560.977 1762.61 565.176 1766.32 568.691C1770.03 572.207 1773.45 573.965 1776.57 573.965C1800.01 573.965 1820.71 570.449 1838.68 563.418C1856.85 556.387 1865.93 549.355 1865.93 542.324C1865.93 539.004 1862.61 536.172 1855.97 533.828C1849.52 531.289 1838.49 528.262 1822.86 524.746C1807.43 521.035 1796.2 518.203 1789.17 516.25C1782.14 514.102 1776.57 512.148 1772.47 510.391C1768.37 508.633 1764.17 506.191 1759.88 503.066C1750.7 496.621 1746.11 487.051 1746.11 474.355C1746.11 461.465 1750.79 448.77 1760.17 436.27C1769.74 423.574 1781.65 412.734 1795.91 403.75C1810.17 394.766 1825.5 386.855 1841.91 380.02C1874.33 366.543 1901.57 359.805 1923.64 359.805C1945.32 359.805 1958.7 364.492 1963.78 373.867C1965.34 377.188 1966.12 380.898 1966.12 385V387.051C1966.12 397.402 1963.88 405.508 1959.39 411.367C1955.09 417.227 1948.16 422.5 1938.59 427.188C1929.21 431.875 1921.69 434.219 1916.03 434.219C1910.56 434.219 1907.04 433.828 1905.48 433.047C1904.11 432.266 1902.94 431.289 1901.96 430.117C1900.99 428.75 1899.72 427.773 1898.16 427.188C1896.79 426.602 1896.11 425.137 1896.11 422.793C1896.11 420.449 1897.08 418.105 1899.04 415.762C1900.99 413.223 1902.36 410.586 1903.14 407.852C1890.25 408.438 1876.77 411.465 1862.71 416.934C1848.64 422.207 1836.54 428.164 1826.38 434.805C1816.42 441.445 1808.12 447.793 1801.48 453.848C1794.84 459.902 1791.52 464.395 1791.52 467.324C1791.52 470.059 1796.01 472.305 1804.99 474.062C1845.42 482.07 1871.98 489.004 1884.68 494.863C1897.38 500.723 1906.16 507.363 1911.05 514.785C1915.93 522.207 1918.37 528.945 1918.37 535C1918.37 547.5 1913.39 559.316 1903.43 570.449C1893.47 581.582 1881.16 590.664 1866.52 597.695C1835.07 613.125 1807.63 620.84 1784.19 620.84C1760.95 620.84 1744.84 617.227 1735.85 610C1727.06 602.969 1722.67 594.57 1722.67 584.805C1722.67 575.039 1725.11 566.055 1729.99 557.852C1735.07 549.453 1741.52 545.254 1749.33 545.254C1757.14 545.254 1761.05 547.305 1761.05 551.406ZM2207.53 523.574C2208.9 532.559 2209.58 539.688 2209.58 544.961C2209.58 550.039 2208.61 554.531 2206.65 558.438C2204.89 562.148 2200.79 567.52 2194.35 574.551C2188.1 581.387 2180.58 588.32 2171.79 595.352C2150.3 612.344 2128.33 620.84 2105.87 620.84C2073.64 620.84 2057.53 606.582 2057.53 578.066C2057.53 553.262 2079.11 503.848 2122.28 429.824C2123.84 427.09 2124.91 425.137 2125.5 423.965C2110.46 434.512 2081.65 463.32 2039.07 510.391C1996.69 557.266 1968.47 590.469 1954.41 610C1953.23 611.758 1950.3 613.711 1945.62 615.859C1940.93 618.008 1937.22 619.082 1934.48 619.082C1931.95 619.082 1929.21 618.203 1926.28 616.445C1923.16 614.883 1921.2 614.102 1920.42 614.102C1917.88 614.102 1916.61 613.223 1916.61 611.465C1916.61 609.902 1920.13 601.016 1927.16 584.805C1934 568.398 1943.08 548.086 1954.41 523.867C1985.46 457.07 2031.65 370.156 2092.98 263.125C2114.46 225.625 2131.26 199.062 2143.37 183.438C2151.96 172.305 2166.42 166.738 2186.73 166.738C2191.03 166.738 2193.47 168.008 2194.05 170.547C2194.64 173.086 2194.93 175.82 2194.93 178.75C2194.93 181.68 2194.35 184.609 2193.18 187.539L2161.83 236.465C2099.72 333.34 2052.94 413.613 2021.5 477.285C2051.96 440.176 2081.55 411.562 2110.27 391.445C2128.04 378.75 2141.32 372.402 2150.11 372.402C2159.09 372.402 2167.2 373.867 2174.43 376.797C2181.65 379.531 2185.27 386.27 2185.27 397.012C2185.27 400.918 2178.92 415.371 2166.22 440.371C2128.14 515.371 2109.09 557.07 2109.09 565.469C2109.09 573.672 2112.51 577.773 2119.35 577.773C2129.31 577.773 2144.64 568.105 2165.34 548.77C2180.97 534.121 2190.83 524.746 2194.93 520.645C2197.28 518.887 2199.43 518.008 2201.38 518.008C2205.09 518.008 2207.14 519.863 2207.53 523.574Z" fill="white"/>
<path d="M1320 759V682.68H1290.48V675H1358.4V682.68H1328.88V759H1320ZM1426.93 759L1465.33 675H1474.09L1512.49 759H1503.13L1467.85 680.16H1471.45L1436.17 759H1426.93ZM1442.05 736.56L1444.69 729.36H1493.53L1496.17 736.56H1442.05ZM1610.48 759V682.68H1580.96V675H1648.88V682.68H1619.36V759H1610.48ZM1752.56 759V682.68H1723.04V675H1790.96V682.68H1761.44V759H1752.56ZM1912.7 759.72C1906.38 759.72 1900.5 758.68 1895.06 756.6C1889.7 754.44 1885.02 751.44 1881.02 747.6C1877.1 743.68 1874.02 739.16 1871.78 734.04C1869.62 728.84 1868.54 723.16 1868.54 717C1868.54 710.84 1869.62 705.2 1871.78 700.08C1874.02 694.88 1877.1 690.36 1881.02 686.52C1885.02 682.6 1889.7 679.6 1895.06 677.52C1900.42 675.36 1906.3 674.28 1912.7 674.28C1919.02 674.28 1924.86 675.36 1930.22 677.52C1935.58 679.6 1940.22 682.56 1944.14 686.4C1948.14 690.24 1951.22 694.76 1953.38 699.96C1955.62 705.16 1956.74 710.84 1956.74 717C1956.74 723.16 1955.62 728.84 1953.38 734.04C1951.22 739.24 1948.14 743.76 1944.14 747.6C1940.22 751.44 1935.58 754.44 1930.22 756.6C1924.86 758.68 1919.02 759.72 1912.7 759.72ZM1912.7 751.8C1917.74 751.8 1922.38 750.96 1926.62 749.28C1930.94 747.52 1934.66 745.08 1937.78 741.96C1940.98 738.76 1943.46 735.08 1945.22 730.92C1946.98 726.68 1947.86 722.04 1947.86 717C1947.86 711.96 1946.98 707.36 1945.22 703.2C1943.46 698.96 1940.98 695.28 1937.78 692.16C1934.66 688.96 1930.94 686.52 1926.62 684.84C1922.38 683.08 1917.74 682.2 1912.7 682.2C1907.66 682.2 1902.98 683.08 1898.66 684.84C1894.34 686.52 1890.58 688.96 1887.38 692.16C1884.26 695.28 1881.78 698.96 1879.94 703.2C1878.18 707.36 1877.3 711.96 1877.3 717C1877.3 721.96 1878.18 726.56 1879.94 730.8C1881.78 735.04 1884.26 738.76 1887.38 741.96C1890.58 745.08 1894.34 747.52 1898.66 749.28C1902.98 750.96 1907.66 751.8 1912.7 751.8ZM2085.36 759.72C2079.04 759.72 2073.16 758.68 2067.72 756.6C2062.36 754.44 2057.68 751.44 2053.68 747.6C2049.76 743.68 2046.68 739.16 2044.44 734.04C2042.28 728.84 2041.2 723.16 2041.2 717C2041.2 710.84 2042.28 705.2 2044.44 700.08C2046.68 694.88 2049.76 690.36 2053.68 686.52C2057.68 682.6 2062.36 679.6 2067.72 677.52C2073.08 675.36 2078.96 674.28 2085.36 674.28C2091.68 674.28 2097.52 675.36 2102.88 677.52C2108.24 679.6 2112.88 682.56 2116.8 686.4C2120.8 690.24 2123.88 694.76 2126.04 699.96C2128.28 705.16 2129.4 710.84 2129.4 717C2129.4 723.16 2128.28 728.84 2126.04 734.04C2123.88 739.24 2120.8 743.76 2116.8 747.6C2112.88 751.44 2108.24 754.44 2102.88 756.6C2097.52 758.68 2091.68 759.72 2085.36 759.72ZM2085.36 751.8C2090.4 751.8 2095.04 750.96 2099.28 749.28C2103.6 747.52 2107.32 745.08 2110.44 741.96C2113.64 738.76 2116.12 735.08 2117.88 730.92C2119.64 726.68 2120.52 722.04 2120.52 717C2120.52 711.96 2119.64 707.36 2117.88 703.2C2116.12 698.96 2113.64 695.28 2110.44 692.16C2107.32 688.96 2103.6 686.52 2099.28 684.84C2095.04 683.08 2090.4 682.2 2085.36 682.2C2080.32 682.2 2075.64 683.08 2071.32 684.84C2067 686.52 2063.24 688.96 2060.04 692.16C2056.92 695.28 2054.44 698.96 2052.6 703.2C2050.84 707.36 2049.96 711.96 2049.96 717C2049.96 721.96 2050.84 726.56 2052.6 730.8C2054.44 735.04 2056.92 738.76 2060.04 741.96C2063.24 745.08 2067 747.52 2071.32 749.28C2075.64 750.96 2080.32 751.8 2085.36 751.8Z" fill="black"/>
</svg>
